<svg xmlns="http://www.w3.org/2000/svg" xmlns:xlink="http://www.w3.org/1999/xlink"><defs>
<linearGradient id="paint0_linear_16839_31" x1="19.774" y1="3.00672e-05" x2="105.785" y2="10.6444" gradientUnits="userSpaceOnUse">
<stop stop-color="#ED0233"/>
<stop offset="1" stop-color="#003EB7"/>
</linearGradient>
<linearGradient id="paint1_linear_16839_31" x1="14" y1="49.52" x2="54.1858" y2="9.18415" gradientUnits="userSpaceOnUse">
<stop stop-color="#003D85"/>
<stop offset="0.885417" stop-color="#B80027"/>
</linearGradient>
</defs><symbol id="icon-close" viewBox="0 0 20 20"><g fill="none"><path d="M.293 18.291a1 1 0 101.414 1.414L10 11.413l8.292 8.292a1 1 0 101.414-1.414l-8.292-8.292 8.292-8.292A1 1 0 1018.291.293L9.999 8.585 1.707.293A1 1 0 10.293 1.707L8.585 10 .293 18.291z"/></g></symbol><symbol id="next"><g fill="none"><path stroke="#AFAFAF" d="m1 1 16 16L1 33"/></g></symbol><symbol id="ok"><g fill="none"><path fill="#fff" d="M12.5 0a12.5 12.5 0 1 0 0 25 12.5 12.5 0 0 0 0-25Z"/><path fill="#030A1A" d="M12.68 6.89c.9 0 1.63.75 1.63 1.68 0 .93-.73 1.68-1.63 1.68-.9 0-1.63-.75-1.63-1.68 0-.93.73-1.68 1.63-1.68Zm0 5.74a4 4 0 0 0 3.94-4.06 4 4 0 0 0-3.94-4.06 4 4 0 0 0-3.93 4.06 4 4 0 0 0 3.93 4.06Zm1.6 3.31c.8-.19 1.56-.51 2.28-.97.53-.35.7-1.09.36-1.64a1.13 1.13 0 0 0-1.6-.38 4.87 4.87 0 0 1-5.29 0 1.13 1.13 0 0 0-1.59.38c-.34.55-.17 1.29.36 1.64.72.46 1.49.78 2.29.97l-2.2 2.27a1.22 1.22 0 0 0 0 1.68 1.14 1.14 0 0 0 1.63 0l2.16-2.23 2.16 2.23c.45.47 1.18.47 1.63 0 .45-.46.45-1.21 0-1.68l-2.2-2.27Z"/></g></symbol><symbol id="play" viewBox="0 0 100 100"><g fill="none">
<circle cx="50" cy="50" r="49" stroke="url(#paint0_linear_16839_31)" stroke-opacity="0.2" stroke-width="2"/>
<circle cx="50" cy="50" r="36" fill="url(#paint1_linear_16839_31)"/>
<path d="M59 49.5L46.25 56.8612L46.25 42.1388L59 49.5Z" fill="white"/>

</g></symbol><symbol id="prev"><g fill="none"><path stroke="#AFAFAF" d="M17 1 1 17l16 16"/></g></symbol><symbol id="reddit" viewBox="0 0 25 25"><g fill="none">
<path d="M12.5 0C5.59692 0 0 5.59692 0 12.5C0 19.4031 5.59692 25 12.5 25C19.4031 25 25 19.4031 25 12.5C25 5.59692 19.4031 0 12.5 0Z" fill="white"/>
<path d="M13.8509 5.55566C13.4055 5.55566 12.9876 5.7816 12.7195 6.10741C12.4514 6.43323 12.3037 6.8304 12.196 7.24897C12.0251 7.92201 11.9723 8.66877 11.9596 9.34181C10.7079 9.42505 9.57444 9.79606 8.63303 10.3692C8.25098 10.0481 7.79083 9.86978 7.34968 9.87454C6.84731 9.87929 6.37028 10.0957 6.01566 10.5404C5.3381 11.3895 5.4162 12.7784 6.20141 13.6036C6.15286 13.8581 6.11698 14.1197 6.11698 14.3837C6.11698 17.1805 8.97498 19.4446 12.5 19.4446C16.025 19.4446 18.883 17.1781 18.883 14.3837C18.883 14.1197 18.8471 13.8581 18.7986 13.6036C19.5838 12.7784 19.6619 11.3895 18.9843 10.5404C18.6297 10.0957 18.1527 9.87929 17.6503 9.87454C17.2091 9.86978 16.749 10.0481 16.3669 10.3692C15.4298 9.79843 14.3026 9.42743 13.0572 9.34181C13.0741 8.72109 13.1184 8.07659 13.243 7.59143C13.3211 7.28702 13.414 7.06584 13.5132 6.94455C13.6124 6.82326 13.6841 6.77332 13.8509 6.77332C14.2118 6.77332 14.2583 6.88985 14.4757 7.17286C14.5854 7.31556 14.7121 7.49393 14.9147 7.66754C15.1174 7.84115 15.4171 7.99098 15.7421 7.99098V6.77332C15.6514 6.77332 15.6345 6.77094 15.5733 6.71624C15.5121 6.66154 15.4276 6.5355 15.3031 6.37378C15.054 6.04796 14.5707 5.55566 13.8509 5.55566ZM17.3632 5.66982C16.5231 5.66982 15.8435 6.43561 15.8435 7.38215C15.8435 8.32869 16.5231 9.09448 17.3632 9.09448C18.2033 9.09448 18.883 8.32869 18.883 7.38215C18.883 6.43561 18.2033 5.66982 17.3632 5.66982ZM17.3632 6.27865C17.9036 6.27865 18.3426 6.77332 18.3426 7.38215C18.3426 7.99098 17.9036 8.48565 17.3632 8.48565C16.8229 8.48565 16.3838 7.99098 16.3838 7.38215C16.3838 6.77332 16.8229 6.27865 17.3632 6.27865ZM12.5 10.2931C15.491 10.2931 18.0218 12.1695 18.0218 14.3837C18.0218 16.6002 15.491 18.4742 12.5 18.4742C9.50901 18.4742 6.97818 16.6002 6.97818 14.3837C6.97818 12.1695 9.50901 10.2931 12.5 10.2931ZM7.36656 10.8449C7.51643 10.8472 7.67263 10.8853 7.82249 10.959C7.28002 11.4228 6.84942 11.9555 6.55602 12.5572C6.35339 12.0863 6.40827 11.4989 6.65734 11.1873C6.83887 10.959 7.09005 10.8425 7.36656 10.8449ZM17.6334 10.8449C17.9099 10.8425 18.1611 10.959 18.3426 11.1873C18.5917 11.4989 18.6466 12.0863 18.4439 12.5572C18.1506 11.9555 17.72 11.4228 17.1775 10.959C17.3273 10.8853 17.4835 10.8472 17.6334 10.8449ZM10.3385 12.3669C9.79819 12.3669 9.35914 12.8616 9.35914 13.4704C9.35914 14.0793 9.79819 14.5739 10.3385 14.5739C10.8789 14.5739 11.3179 14.0793 11.3179 13.4704C11.3179 12.8616 10.8789 12.3669 10.3385 12.3669ZM14.6614 12.3669C14.1211 12.3669 13.682 12.8616 13.682 13.4704C13.682 14.0793 14.1211 14.5739 14.6614 14.5739C15.2018 14.5739 15.6408 14.0793 15.6408 13.4704C15.6408 12.8616 15.2018 12.3669 14.6614 12.3669ZM9.81507 16.115C10.1591 16.9165 11.223 17.6942 12.5 17.6942C13.777 17.6942 14.8577 16.9165 15.2018 16.115C14.577 16.5693 13.5913 16.8761 12.5 16.8761C11.4087 16.8761 10.4399 16.5693 9.81507 16.115Z" fill="#030A1A"/>
</g></symbol><symbol id="ruble"><g fill="none"><path fill="#102654" fill-rule="evenodd" d="M0 13.357h4.8v4.714H0v-4.714Z" clip-rule="evenodd"/><path fill="#102654" fill-rule="evenodd" d="M2.927 22.253v-8.11h4.8v8.11H16.8v4.714H7.727V33h-4.8v-6.033H0v-4.714h2.927Z" clip-rule="evenodd"/><path fill="#102654" fill-rule="evenodd" d="M14.8 4.714H8v8.643h6.8c2.43 0 4.4-1.935 4.4-4.321 0-2.387-1.97-4.322-4.4-4.322ZM3.2 0v18.071h11.6c5.081 0 9.2-4.045 9.2-9.035S19.881 0 14.8 0H3.2Z" clip-rule="evenodd"/></g></symbol><symbol id="supergym"><g fill="none"><path fill="#fff" d="M5.77 22.25c-1.18 0-2.2-.18-3.06-.54-.87-.36-1.53-1-1.98-1.9a9.21 9.21 0 0 1-.65-3.86v-1.22H3.61v1.51c0 1 .1 1.79.29 2.34.19.55.45.94.79 1.15.33.2.72.29 1.15.29.7 0 1.25-.23 1.66-.68.43-.48.64-1.37.64-2.67 0-.96-.14-1.68-.43-2.16a3 3 0 0 0-1.37-1.15c-.6-.31-1.38-.66-2.34-1.04a9 9 0 0 1-2.05-1.26c-.57-.48-1-1.1-1.3-1.84a7.73 7.73 0 0 1-.43-2.77C.22 5.1.4 4 .72 3.17c.37-.86.97-1.49 1.8-1.87C3.38.9 4.5.69 5.93.69c1.82 0 3.2.42 4.17 1.26.96.81 1.44 2.01 1.44 3.6v2.48H8.14V6.56c0-1.1-.18-1.9-.54-2.38-.33-.5-.88-.76-1.65-.76-.8 0-1.37.24-1.73.72-.34.46-.5 1.2-.5 2.2 0 .86.16 1.54.5 2.02.34.45.77.81 1.3 1.08.55.26 1.11.5 1.69.72 1.08.4 1.95.82 2.63 1.26.67.43 1.16 1 1.47 1.72.31.72.47 1.74.47 3.06a7.3 7.3 0 0 1-.76 3.6 4.18 4.18 0 0 1-2.08 1.88c-.9.38-1.95.57-3.17.57Zm15.15.18c-.82 0-1.58-.06-2.27-.18a3.54 3.54 0 0 1-2.99-2.34 8.03 8.03 0 0 1-.43-2.91V.72h3.45V17.9c0 .64.1 1.15.3 1.5.2.34.48.57.82.7.34.11.7.17 1.12.17.4 0 .78-.06 1.11-.18.34-.12.6-.35.8-.68.21-.36.32-.87.32-1.51V.72h3.42v16.24c0 1.22-.15 2.2-.43 2.95a3.32 3.32 0 0 1-1.16 1.62c-.5.36-1.1.6-1.8.72s-1.45.18-2.26.18Zm9.9-.43V.72h7.2c1.35 0 2.38.3 3.1.9.72.6 1.08 1.5 1.08 2.67v3.78c0 .91-.12 1.76-.36 2.55-.22.77-.65 1.4-1.3 1.88-.62.48-1.53.72-2.73.72h-3.39V22h-3.6Zm3.6-10.73h2.2a1.8 1.8 0 0 0 1.62-.83c.36-.57.54-1.5.54-2.77v-1.9c0-1.13-.16-1.94-.47-2.42a1.47 1.47 0 0 0-1.3-.72h-2.59v8.64ZM45.6 22V.72h9.58v2.45H49.2v6.45h4.94v2.7H49.2v7.3h5.98V22H45.6Zm12.85 0V.72h7.35c1.34 0 2.37.3 3.1.9.74.6 1.1 1.5 1.1 2.67v3.38c0 1.18-.31 2.14-.96 2.88-.65.72-1.61 1.12-2.88 1.19.81.07 1.39.34 1.73.8.36.45.68 1.16.97 2.12L70.9 22h-3.82l-1.69-7.1c-.17-.6-.36-1.12-.57-1.58-.22-.45-.57-.68-1.05-.68h-1.76V22h-3.57Zm3.57-11.77h2.3c.84 0 1.43-.22 1.77-.65.36-.43.54-1.1.54-1.98V4.9c0-.8-.17-1.37-.5-1.73-.32-.36-.81-.54-1.48-.54h-2.63v7.6Zm16.6 12.17c-.82 0-1.6-.14-2.31-.4a3.27 3.27 0 0 1-1.76-1.48 7.14 7.14 0 0 1-.65-3.42V5.22c0-1.3.24-2.28.72-2.95a3.5 3.5 0 0 1 2.01-1.4c.87-.27 1.86-.4 3-.4 1.12 0 2.12.13 2.98.4.86.26 1.54.74 2.02 1.44.5.67.75 1.64.75 2.91V8.1h-3.35V5.08c0-.72-.1-1.26-.32-1.62-.2-.36-.47-.6-.83-.72a3.66 3.66 0 0 0-1.22-.18c-.43 0-.83.06-1.2.18-.35.12-.64.36-.85.72-.2.36-.3.9-.3 1.62v12.78c0 .72.1 1.26.3 1.62.21.36.5.6.86.72s.76.18 1.19.18c.7 0 1.26-.2 1.69-.61.46-.43.68-1.07.68-1.91v-4.32h-2.12v-1.98h5.47V22h-2.6l-.17-1.8a4.9 4.9 0 0 1-.36.58c-.29.43-.72.81-1.3 1.15a4.8 4.8 0 0 1-2.34.47Zm13.3-.4v-9.14L87.94.72h3.42L93.6 8l.18 1.11L94 8 96.34.72h3.2l-4.17 12.32V22H91.9Zm10.53 0V.72h4.25l3.56 15.12 3.6-15.12h4.21V22h-3.06V5.58L111.45 22h-2.38l-3.56-16.42V22h-3.06Z"/></g></symbol><symbol id="vk"><g fill="none"><path fill="#fff" d="M12.5 0a12.5 12.5 0 1 0 0 25 12.5 12.5 0 0 0 0-25Z"/><path fill="#030A1A" d="M13.72 15.05c.45-.14 1.01.95 1.62 1.36.45.32.8.25.8.25l1.6-.02s.84-.06.45-.72c-.04-.06-.24-.5-1.2-1.4-1-.95-.87-.8.34-2.43.74-1 1.04-1.6.94-1.87-.08-.25-.63-.18-.63-.18l-1.8.01c-.19 0-.34.06-.4.24 0 0-.3.77-.67 1.43-.8 1.38-1.13 1.45-1.26 1.37-.31-.2-.23-.8-.23-1.24 0-1.34.2-1.9-.4-2.04-.2-.05-.34-.08-.84-.09-.65 0-1.2 0-1.5.16-.2.1-.37.33-.27.34.12.02.39.07.53.27.19.26.18.83.18.83s.11 1.58-.25 1.77c-.24.14-.58-.14-1.3-1.4-.36-.63-.64-1.35-.64-1.35s-.05-.13-.15-.2c-.12-.09-.28-.11-.28-.11H6.64s-.26.02-.35.13c-.08.1 0 .3 0 .3s1.34 3.2 2.86 4.8c1.4 1.47 3 1.38 3 1.38h.71s.22-.03.33-.15c.1-.1.1-.32.1-.32s-.01-.97.43-1.12Z"/></g></symbol></svg>